G04 MADE WITH FRITZING*
G04 WWW.FRITZING.ORG*
G04 DOUBLE SIDED*
G04 HOLES PLATED*
G04 CONTOUR ON CENTER OF CONTOUR VECTOR*
%ASAXBY*%
%FSLAX23Y23*%
%MOIN*%
%OFA0B0*%
%SFA1.0B1.0*%
%ADD10C,0.075833*%
%ADD11C,0.075000*%
%ADD12C,0.070000*%
%ADD13C,0.062992*%
%ADD14R,0.075000X0.075000*%
%ADD15R,0.062992X0.062992*%
%ADD16C,0.024000*%
%LNCOPPER0*%
G90*
G70*
G54D10*
X734Y1997D03*
X834Y1997D03*
X941Y1997D03*
X1041Y1997D03*
X1141Y1997D03*
X1241Y1997D03*
X1341Y1997D03*
X1441Y1997D03*
X1541Y1997D03*
X1641Y1997D03*
X1811Y1997D03*
X1911Y1997D03*
X2011Y1997D03*
X2111Y1997D03*
X2211Y1997D03*
X2311Y1997D03*
X2411Y1997D03*
X2511Y1997D03*
X1111Y97D03*
X1211Y97D03*
X1311Y97D03*
X1411Y97D03*
X1511Y97D03*
X1611Y97D03*
X1711Y97D03*
X1811Y97D03*
X2011Y97D03*
X2111Y97D03*
X2211Y97D03*
X2311Y97D03*
X2411Y97D03*
X2511Y97D03*
G54D11*
X1108Y735D03*
X808Y735D03*
X1108Y835D03*
X808Y835D03*
X1108Y935D03*
X808Y935D03*
X1108Y1035D03*
X808Y1035D03*
X1108Y1135D03*
X808Y1135D03*
X1108Y1235D03*
X808Y1235D03*
X1108Y1335D03*
X808Y1335D03*
X1108Y1435D03*
X808Y1435D03*
G54D12*
X956Y1704D03*
X1156Y1704D03*
G54D11*
X1856Y588D03*
X1456Y588D03*
X1846Y1180D03*
X1446Y1180D03*
X1852Y1461D03*
X1452Y1461D03*
X1849Y1320D03*
X1449Y1320D03*
X1852Y1034D03*
X1452Y1034D03*
X1855Y1605D03*
X1455Y1605D03*
X1852Y747D03*
X1452Y747D03*
X1848Y894D03*
X1448Y894D03*
G54D13*
X2178Y585D03*
X2277Y585D03*
X2401Y1031D03*
X2499Y1031D03*
X2171Y894D03*
X2269Y894D03*
X2174Y1171D03*
X2272Y1171D03*
X2402Y1611D03*
X2500Y1611D03*
X2185Y1454D03*
X2283Y1454D03*
X2401Y744D03*
X2499Y744D03*
X2399Y1304D03*
X2497Y1304D03*
G54D14*
X1108Y735D03*
X1856Y588D03*
X1846Y1180D03*
X1852Y1461D03*
X1849Y1320D03*
X1852Y1034D03*
X1855Y1605D03*
X1852Y747D03*
X1848Y894D03*
G54D15*
X2178Y585D03*
X2401Y1031D03*
X2171Y894D03*
X2174Y1171D03*
X2402Y1611D03*
X2185Y1454D03*
X2401Y744D03*
X2399Y1304D03*
G54D16*
X2162Y1454D02*
X1876Y1461D01*
D02*
X1874Y1319D02*
X2376Y1305D01*
D02*
X1880Y1605D02*
X2379Y1611D01*
D02*
X2151Y1171D02*
X1870Y1179D01*
D02*
X1876Y1034D02*
X2378Y1031D01*
D02*
X2148Y894D02*
X1873Y894D01*
D02*
X2378Y744D02*
X1876Y747D01*
D02*
X2155Y586D02*
X1880Y588D01*
D02*
X1355Y839D02*
X1427Y881D01*
D02*
X1133Y836D02*
X1355Y839D01*
D02*
X1434Y742D02*
X1134Y735D01*
D02*
X1298Y936D02*
X1431Y1021D01*
D02*
X1133Y936D02*
X1298Y936D01*
D02*
X1275Y1039D02*
X1426Y1164D01*
D02*
X1133Y1036D02*
X1275Y1039D01*
D02*
X1252Y1139D02*
X1430Y1303D01*
D02*
X1133Y1136D02*
X1252Y1139D01*
D02*
X1396Y1464D02*
X1206Y1231D01*
D02*
X1206Y1231D02*
X1133Y1234D01*
D02*
X1427Y1463D02*
X1396Y1464D01*
D02*
X1178Y1339D02*
X1303Y1597D01*
D02*
X1303Y1597D02*
X1430Y1604D01*
D02*
X1133Y1337D02*
X1178Y1339D01*
D02*
X783Y737D02*
X685Y745D01*
D02*
X686Y1332D02*
X783Y1335D01*
D02*
X686Y745D02*
X686Y1332D01*
D02*
X953Y835D02*
X953Y588D01*
D02*
X833Y835D02*
X953Y835D01*
D02*
X953Y588D02*
X1431Y588D01*
D02*
X882Y1235D02*
X882Y1901D01*
D02*
X833Y1235D02*
X882Y1235D01*
D02*
X1242Y1901D02*
X1241Y1972D01*
D02*
X882Y1901D02*
X1242Y1901D01*
D02*
X1512Y219D02*
X1511Y122D01*
D02*
X808Y219D02*
X1512Y219D01*
D02*
X808Y711D02*
X808Y219D01*
D02*
X2499Y585D02*
X2300Y585D01*
D02*
X2499Y721D02*
X2499Y585D01*
D02*
X1112Y1460D02*
X1151Y1681D01*
D02*
X2500Y1704D02*
X2500Y1634D01*
D02*
X1179Y1704D02*
X2500Y1704D01*
D02*
X1612Y238D02*
X2277Y238D01*
D02*
X1611Y122D02*
X1612Y238D01*
D02*
X2277Y238D02*
X2277Y562D01*
D02*
X956Y1807D02*
X956Y1728D01*
D02*
X1642Y1807D02*
X956Y1807D01*
D02*
X1641Y1972D02*
X1642Y1807D01*
D02*
X956Y1135D02*
X956Y1681D01*
D02*
X833Y1135D02*
X956Y1135D01*
D02*
X1024Y1435D02*
X1083Y1435D01*
D02*
X1024Y1035D02*
X1024Y1435D01*
D02*
X833Y1035D02*
X1024Y1035D01*
D02*
X2499Y894D02*
X2499Y766D01*
D02*
X2499Y1008D02*
X2499Y894D01*
D02*
X2497Y1454D02*
X2497Y1327D01*
D02*
X2500Y1588D02*
X2497Y1454D01*
D02*
X2497Y1171D02*
X2499Y1053D01*
D02*
X2497Y1281D02*
X2497Y1171D01*
D02*
X2306Y1454D02*
X2497Y1454D01*
D02*
X2295Y1171D02*
X2497Y1171D01*
D02*
X2292Y894D02*
X2499Y894D01*
G04 End of Copper0*
M02*